<svg xmlns="http://www.w3.org/2000/svg" width="1375" height="694" viewBox="0 0 1375 694" version="1.1"><path d="M 892.958 2.079 C 892.346 3.223, 891.216 4.910, 890.446 5.829 C 889.677 6.748, 886.118 11.550, 882.538 16.500 C 878.957 21.450, 875.677 25.950, 875.249 26.500 C 874.821 27.050, 872.692 29.975, 870.518 33 C 868.344 36.025, 866.299 38.725, 865.973 39 C 865.646 39.275, 863.164 42.650, 860.456 46.500 C 854.779 54.570, 854.841 54.486, 851.515 58.644 C 850.132 60.374, 849 62.249, 849 62.811 C 849 63.373, 848.620 63.983, 848.155 64.167 C 847.690 64.350, 845.565 66.975, 843.434 70 C 841.302 73.025, 839.305 75.725, 838.995 76 C 838.685 76.275, 836.214 79.650, 833.503 83.500 C 830.792 87.350, 827.769 91.372, 826.787 92.439 C 825.804 93.505, 825 94.710, 825 95.117 C 825 95.524, 824.418 96.452, 823.707 97.179 C 822.996 97.905, 820.199 101.650, 817.491 105.500 C 814.784 109.350, 812.299 112.725, 811.970 113 C 811.293 113.566, 797.038 133.292, 795.500 135.791 C 794.950 136.684, 793.936 138.031, 793.246 138.783 C 792.557 139.535, 790.562 142.254, 788.812 144.825 C 787.063 147.396, 785.350 149.725, 785.006 150 C 784.661 150.275, 782.166 153.650, 779.461 157.500 C 776.756 161.350, 773.968 165.098, 773.265 165.828 C 772.562 166.558, 771.505 168.056, 770.916 169.157 C 770.327 170.258, 769.216 171.910, 768.446 172.829 C 767.677 173.748, 764.118 178.550, 760.538 183.500 C 756.957 188.450, 753.677 192.950, 753.249 193.500 C 752.821 194.050, 750.692 196.975, 748.518 200 C 746.344 203.025, 744.304 205.725, 743.984 206 C 743.664 206.275, 740.746 210.325, 737.500 215 C 734.254 219.675, 731.312 223.725, 730.963 224 C 730.614 224.275, 727.133 229, 723.227 234.500 C 719.321 240, 715.753 244.950, 715.297 245.500 C 714.842 246.050, 712.692 248.975, 710.518 252 C 708.344 255.025, 706.297 257.725, 705.968 258 C 705.639 258.275, 702.054 263.225, 698 269 C 693.946 274.775, 690.359 279.725, 690.027 280 C 689.336 280.574, 680.685 292.677, 676.987 298.243 C 675.619 300.302, 674.163 301.989, 673.750 301.993 C 673.337 301.997, 673 302.637, 673 303.417 C 673 304.196, 672.655 304.983, 672.233 305.167 C 671.811 305.350, 669.688 307.975, 667.516 311 C 665.343 314.025, 663.311 316.725, 662.999 317 C 662.687 317.275, 660.214 320.650, 657.503 324.500 C 654.792 328.350, 651.769 332.372, 650.787 333.439 C 649.804 334.505, 649 335.710, 649 336.117 C 649 336.524, 648.418 337.452, 647.707 338.179 C 646.996 338.905, 644.199 342.650, 641.491 346.500 C 638.784 350.350, 636.299 353.725, 635.970 354 C 635.641 354.275, 632.027 359.225, 627.939 365 C 620.200 375.932, 611.814 387.419, 609.688 390 C 609.009 390.825, 606.237 394.650, 603.528 398.500 C 600.820 402.350, 597.680 406.681, 596.552 408.124 C 595.423 409.568, 593.738 411.818, 592.806 413.124 C 591.874 414.431, 587.712 420.098, 583.556 425.718 C 579.400 431.337, 576 436.195, 576 436.513 C 576 436.831, 574.875 438.216, 573.500 439.591 C 572.125 440.966, 571 442.436, 571 442.857 C 571 443.278, 570.200 444.495, 569.222 445.561 C 568.245 446.628, 564.770 451.325, 561.500 456 C 558.230 460.675, 554.755 465.372, 553.778 466.439 C 552.800 467.505, 552 468.710, 552 469.117 C 552 469.524, 551.418 470.452, 550.707 471.179 C 549.996 471.905, 547.185 475.650, 544.461 479.500 C 541.736 483.350, 538.958 487.175, 538.286 488 C 537.615 488.825, 534.601 492.875, 531.590 497 C 528.578 501.125, 525.744 504.950, 525.291 505.500 C 524.838 506.050, 522.252 509.650, 519.544 513.500 C 516.836 517.350, 514.344 520.725, 514.005 521 C 513.667 521.275, 509.709 526.675, 505.211 533 C 494.973 547.396, 493.116 549.943, 475.577 573.662 C 473.885 575.950, 471.738 578.875, 470.806 580.162 C 469.874 581.448, 465.712 587.098, 461.556 592.718 C 457.400 598.337, 454 603.362, 454 603.884 C 454 604.406, 453.620 604.983, 453.155 605.167 C 452.690 605.350, 450.565 607.975, 448.434 611 C 446.302 614.025, 444.305 616.725, 443.995 617 C 443.685 617.275, 441.224 620.650, 438.526 624.500 C 435.828 628.350, 433.341 631.725, 433 632 C 432.659 632.275, 430.214 635.560, 427.566 639.300 L 422.754 646.099 424.627 647.557 C 425.657 648.358, 430.024 651.522, 434.332 654.587 C 438.639 657.652, 442.914 660.785, 443.832 661.550 C 444.749 662.314, 450.225 666.390, 456 670.606 C 469.269 680.295, 475.176 684.679, 476.708 685.977 C 477.372 686.540, 478.583 687, 479.398 687 L 480.880 687 489.637 674.750 C 494.453 668.013, 498.670 662.275, 499.007 662 C 499.345 661.725, 501.836 658.350, 504.544 654.500 C 507.252 650.650, 510.263 646.628, 511.234 645.561 C 512.205 644.495, 513 643.290, 513 642.883 C 513 642.476, 513.565 641.548, 514.256 640.821 C 516.899 638.042, 532 616.890, 532 615.969 C 532 615.436, 532.337 614.999, 532.750 614.998 C 533.163 614.997, 534.850 612.982, 536.500 610.520 C 538.150 608.058, 539.837 606.034, 540.250 606.022 C 540.663 606.010, 541 605.363, 541 604.583 C 541 603.804, 541.360 603.017, 541.801 602.833 C 542.242 602.650, 544.820 599.350, 547.530 595.500 C 550.240 591.650, 553.032 587.902, 553.735 587.172 C 554.438 586.442, 555.495 584.944, 556.084 583.843 C 556.673 582.742, 557.785 581.090, 558.555 580.171 C 559.324 579.252, 563.585 573.550, 568.023 567.500 C 572.462 561.450, 577.069 555.223, 578.263 553.663 C 579.456 552.102, 581.123 549.772, 581.966 548.485 C 585.508 543.081, 593.458 532.475, 594.199 532.167 C 594.640 531.983, 595 531.196, 595 530.417 C 595 529.638, 595.337 528.997, 595.750 528.993 C 596.163 528.989, 597.625 527.329, 599 525.303 C 601.366 521.818, 610.079 509.654, 611.753 507.500 C 612.180 506.950, 614.308 504.025, 616.482 501 C 618.656 497.975, 620.701 495.275, 621.027 495 C 621.354 494.725, 623.836 491.350, 626.544 487.500 C 629.252 483.650, 632.263 479.628, 633.234 478.561 C 634.205 477.495, 635 476.290, 635 475.883 C 635 475.476, 635.582 474.548, 636.293 473.821 C 637.004 473.095, 639.796 469.350, 642.498 465.500 C 645.200 461.650, 648.893 456.654, 650.705 454.397 C 652.517 452.140, 654 449.815, 654 449.230 C 654 448.645, 654.337 448.017, 654.750 447.833 C 655.489 447.505, 662.886 437.763, 670.569 427 C 672.728 423.975, 675.042 420.825, 675.709 420 C 678.024 417.141, 686.509 405.487, 688.316 402.684 C 689.315 401.135, 690.761 399.110, 691.528 398.184 C 693.992 395.211, 702.346 383.798, 709.963 373 C 714.037 367.225, 717.652 362.275, 717.995 362 C 718.339 361.725, 720.834 358.350, 723.539 354.500 C 726.244 350.650, 729.032 346.902, 729.735 346.172 C 730.438 345.442, 731.495 343.944, 732.084 342.843 C 732.673 341.742, 733.782 340.090, 734.548 339.171 C 737.469 335.665, 751 317.039, 751 316.523 C 751 316.225, 752.336 314.583, 753.970 312.874 C 755.603 311.165, 757.208 308.919, 757.537 307.884 C 757.866 306.848, 758.554 306, 759.067 306 C 759.580 306, 760 305.518, 760 304.929 C 760 304.339, 760.691 303.166, 761.535 302.322 C 762.379 301.478, 764.933 298.022, 767.210 294.644 C 769.487 291.265, 771.623 288.275, 771.956 288 C 772.289 287.725, 777.934 280.075, 784.500 271 C 791.066 261.925, 796.704 254.275, 797.029 254 C 797.355 253.725, 799.836 250.350, 802.544 246.500 C 805.252 242.650, 808.257 238.633, 809.222 237.574 C 810.188 236.514, 811.238 234.827, 811.556 233.824 C 811.874 232.821, 812.554 232, 813.067 232 C 813.580 232, 814 231.363, 814 230.583 C 814 229.804, 814.392 229.017, 814.870 228.833 C 815.349 228.650, 817.711 225.734, 820.120 222.354 C 832.135 205.495, 839.433 195.451, 839.996 195 C 840.340 194.725, 842.836 191.350, 845.544 187.500 C 848.252 183.650, 851.263 179.628, 852.234 178.561 C 853.205 177.495, 854 176.290, 854 175.883 C 854 175.476, 854.582 174.548, 855.293 173.821 C 856.004 173.095, 858.808 169.350, 861.524 165.500 C 864.240 161.650, 866.808 158.350, 867.231 158.167 C 867.654 157.983, 868 157.196, 868 156.417 C 868 155.637, 868.337 154.997, 868.750 154.993 C 869.163 154.989, 870.625 153.334, 872 151.315 C 873.375 149.296, 874.964 147.162, 875.531 146.572 C 876.098 145.982, 880.318 140.150, 884.910 133.610 C 889.502 127.071, 893.858 120.996, 894.591 120.110 C 896.526 117.772, 904.555 106.863, 911.968 96.500 C 915.509 91.550, 918.666 87.275, 918.982 87 C 919.941 86.168, 927 76.033, 927 75.489 C 927 75.210, 928.336 73.583, 929.970 71.874 C 931.603 70.165, 933.208 67.919, 933.537 66.884 C 933.866 65.848, 934.554 65, 935.067 65 C 935.580 65, 936 64.362, 936 63.583 C 936 62.804, 936.360 62.017, 936.801 61.833 C 937.242 61.650, 939.822 58.350, 942.535 54.500 C 945.248 50.650, 948.257 46.633, 949.222 45.574 C 950.188 44.514, 951.259 42.761, 951.602 41.677 L 952.228 39.707 950.833 38.926 C 950.066 38.497, 947.877 36.770, 945.969 35.089 C 944.061 33.408, 941.975 32.025, 941.333 32.016 C 940.692 32.007, 940.017 31.640, 939.833 31.199 C 939.650 30.758, 936.350 28.186, 932.500 25.483 C 928.650 22.780, 925.275 20.313, 925 20.001 C 924.725 19.689, 922.025 17.656, 919 15.482 C 915.975 13.309, 912.628 10.736, 911.561 9.765 C 910.495 8.794, 909.290 8, 908.883 8 C 908.476 8, 907.548 7.438, 906.821 6.750 C 903.211 3.335, 897.915 0, 896.102 0 L 894.070 0 892.958 2.079" stroke="none" fill="#272727" fill-rule="evenodd"/><path d="M 11.345 89.750 C 10.716 91.263, 9.958 93.625, 9.660 95 C 7.444 105.249, 6.805 107.707, 5.960 109.236 C 5.432 110.191, 5 112.077, 5 113.427 C 5 114.777, 4.600 116.129, 4.110 116.432 C 3.621 116.734, 2.963 118.448, 2.648 120.241 C 2.334 122.033, 1.516 126.355, 0.832 129.845 L -0.412 136.190 1.544 137.345 C 2.620 137.980, 4.850 138.803, 6.500 139.174 C 8.150 139.545, 11.075 140.296, 13 140.844 C 14.925 141.392, 20.550 142.817, 25.500 144.011 C 30.450 145.204, 35.281 146.591, 36.236 147.091 C 37.191 147.591, 38.885 148, 40 148 C 41.115 148, 42.809 148.395, 43.764 148.877 C 46.044 150.030, 50.815 151.393, 60 153.516 C 64.125 154.469, 68.400 155.610, 69.500 156.050 C 70.600 156.489, 72.625 157.063, 74 157.323 C 75.375 157.584, 80.775 158.976, 86 160.417 C 91.225 161.859, 96.850 163.291, 98.500 163.600 C 100.150 163.909, 102.400 164.513, 103.500 164.942 C 106.973 166.298, 112.258 167.769, 120 169.537 C 124.125 170.479, 128.281 171.644, 129.236 172.125 C 130.191 172.606, 132.077 173, 133.427 173 C 134.777 173, 136.160 173.450, 136.500 174 C 136.840 174.550, 138.223 175, 139.573 175 C 140.923 175, 142.809 175.409, 143.764 175.909 C 145.329 176.729, 159.730 180.459, 166 181.668 C 167.375 181.934, 169.400 182.504, 170.500 182.937 C 173.936 184.287, 179.221 185.761, 187 187.537 C 191.125 188.479, 195.281 189.644, 196.236 190.125 C 197.191 190.606, 199.077 191, 200.427 191 C 201.777 191, 203.160 191.450, 203.500 192 C 203.840 192.550, 205.223 193, 206.573 193 C 207.923 193, 209.809 193.409, 210.764 193.909 C 212.684 194.915, 228.633 198.950, 233.759 199.727 C 235.552 199.999, 237.266 200.621, 237.568 201.110 C 237.871 201.600, 239.351 202, 240.859 202 C 242.367 202, 244.028 202.375, 244.550 202.833 C 245.073 203.291, 249.100 204.466, 253.500 205.445 C 257.900 206.424, 262.281 207.624, 263.236 208.112 C 264.191 208.601, 266.077 209, 267.427 209 C 268.777 209, 270.129 209.400, 270.432 209.890 C 270.734 210.379, 272.448 211.006, 274.241 211.284 C 276.033 211.561, 282 213.004, 287.500 214.489 C 293 215.974, 298.625 217.408, 300 217.676 C 301.375 217.943, 303.175 218.427, 304 218.750 C 304.825 219.074, 307.427 219.871, 309.782 220.523 L 314.063 221.707 334.532 201.142 C 345.789 189.831, 355 180.028, 355 179.356 C 355 178.018, 354.857 177.968, 344 175.492 C 339.875 174.551, 335.719 173.381, 334.764 172.891 C 333.809 172.401, 331.923 172, 330.573 172 C 329.223 172, 327.872 171.602, 327.571 171.115 C 327.271 170.629, 325.781 169.985, 324.262 169.686 C 322.743 169.386, 318.575 168.408, 315 167.513 C 311.425 166.617, 307.375 165.652, 306 165.367 C 304.625 165.082, 302.600 164.467, 301.500 164 C 300.400 163.533, 298.375 162.923, 297 162.645 C 295.625 162.367, 292.925 161.694, 291 161.150 C 289.075 160.605, 283.450 159.183, 278.500 157.989 C 273.550 156.796, 268.719 155.409, 267.764 154.909 C 266.809 154.409, 264.923 154, 263.573 154 C 262.223 154, 260.872 153.602, 260.571 153.115 C 260.271 152.629, 258.781 151.985, 257.262 151.686 C 255.743 151.386, 251.575 150.408, 248 149.513 C 244.425 148.617, 240.375 147.652, 239 147.367 C 237.625 147.082, 235.600 146.467, 234.500 146 C 233.400 145.533, 231.375 144.937, 230 144.677 C 228.625 144.416, 223.225 143.011, 218 141.554 C 212.775 140.098, 206.802 138.641, 204.726 138.318 C 202.650 137.995, 200.711 137.341, 200.417 136.865 C 200.123 136.389, 198.649 136, 197.141 136 C 195.633 136, 193.972 135.625, 193.450 135.167 C 192.927 134.709, 188.900 133.534, 184.500 132.555 C 180.100 131.576, 175.719 130.376, 174.764 129.888 C 173.809 129.399, 171.923 129, 170.573 129 C 169.223 129, 167.871 128.600, 167.568 128.110 C 167.266 127.621, 165.552 126.994, 163.759 126.716 C 161.967 126.439, 156 124.986, 150.500 123.488 C 145 121.990, 139.033 120.543, 137.241 120.272 C 135.448 120.001, 133.734 119.379, 133.432 118.890 C 133.129 118.400, 131.649 118, 130.141 118 C 128.633 118, 126.973 117.625, 126.450 117.167 C 125.928 116.709, 121.900 115.534, 117.500 114.555 C 113.100 113.576, 108.719 112.376, 107.764 111.888 C 106.809 111.399, 104.923 111, 103.573 111 C 102.223 111, 100.871 110.600, 100.568 110.110 C 100.266 109.621, 98.552 108.994, 96.759 108.716 C 94.967 108.439, 89 106.986, 83.500 105.488 C 78 103.990, 72.033 102.543, 70.241 102.272 C 68.448 102.001, 66.734 101.379, 66.432 100.890 C 66.129 100.400, 64.649 100, 63.141 100 C 61.633 100, 59.972 99.625, 59.450 99.167 C 58.927 98.709, 54.900 97.534, 50.500 96.555 C 46.100 95.576, 41.719 94.376, 40.764 93.888 C 39.809 93.399, 37.923 93, 36.573 93 C 35.223 93, 33.871 92.600, 33.568 92.110 C 33.266 91.621, 31.552 91.002, 29.759 90.734 C 27.967 90.465, 23.891 89.516, 20.701 88.623 C 13.068 86.487, 12.682 86.533, 11.345 89.750 M 39 194.840 C 39 196.513, 38.600 198.129, 38.110 198.432 C 37.621 198.734, 36.999 200.448, 36.727 202.241 C 36.108 206.324, 32.052 222.817, 31.007 225.500 C 30.579 226.600, 29.742 229.300, 29.149 231.500 C 28.556 233.700, 27.788 236.546, 27.444 237.823 L 26.819 240.147 28.659 241.542 C 29.672 242.309, 31.711 242.951, 33.191 242.968 C 34.671 242.986, 36.160 243.450, 36.500 244 C 36.840 244.550, 38.415 245, 40 245 C 41.585 245, 43.129 245.400, 43.432 245.890 C 43.734 246.379, 45.448 247.001, 47.241 247.273 C 52.367 248.050, 68.316 252.085, 70.236 253.091 C 71.191 253.591, 72.885 254, 74 254 C 75.115 254, 76.809 254.395, 77.764 254.877 C 80.065 256.040, 84.883 257.411, 94 259.500 C 98.125 260.445, 102.281 261.619, 103.236 262.109 C 104.191 262.599, 106.077 263, 107.427 263 C 108.777 263, 110.129 263.400, 110.432 263.890 C 110.734 264.379, 112.448 264.997, 114.241 265.264 C 118.469 265.894, 133.916 269.862, 136.500 270.982 C 137.600 271.459, 139.625 272.063, 141 272.323 C 142.375 272.584, 147.775 273.989, 153 275.446 C 158.225 276.902, 164.198 278.359, 166.274 278.682 C 168.350 279.005, 170.289 279.659, 170.583 280.135 C 170.877 280.611, 172.415 281, 174 281 C 175.585 281, 177.129 281.400, 177.432 281.890 C 177.734 282.379, 179.448 283.008, 181.241 283.288 C 183.033 283.568, 187.200 284.544, 190.500 285.456 C 193.800 286.369, 197.625 287.348, 199 287.633 C 200.375 287.918, 202.400 288.533, 203.500 289 C 204.600 289.467, 206.625 290.070, 208 290.340 C 214.203 291.556, 228.666 295.312, 230.236 296.114 C 231.191 296.601, 233.077 297, 234.427 297 C 235.777 297, 237.160 297.450, 237.500 298 C 237.840 298.550, 239.415 299, 241 299 C 242.585 299, 244.129 299.400, 244.432 299.890 C 244.734 300.379, 246.448 301.017, 248.241 301.308 C 250.033 301.599, 254.425 302.586, 258 303.500 C 261.575 304.414, 265.962 305.400, 267.750 305.691 C 269.538 305.981, 271 306.570, 271 307 C 271 307.430, 272.462 308.008, 274.250 308.285 C 276.038 308.562, 282 310.014, 287.500 311.512 C 293 313.010, 298.967 314.457, 300.759 314.728 C 302.552 314.999, 304.266 315.621, 304.568 316.110 C 304.871 316.600, 306.415 317, 308 317 C 309.585 317, 311.160 317.450, 311.500 318 C 311.840 318.550, 313.493 319, 315.173 319 L 318.227 319 317.515 314.250 C 317.123 311.637, 316.397 308.742, 315.901 307.816 C 315.406 306.889, 315 305.003, 315 303.625 C 315 302.246, 314.550 300.840, 314 300.500 C 313.450 300.160, 313 298.777, 313 297.427 C 313 296.077, 312.606 294.191, 312.125 293.236 C 311.644 292.281, 310.479 288.125, 309.537 284 C 307.512 275.132, 306.082 270.147, 304.877 267.764 C 304.395 266.809, 304 265.283, 304 264.374 C 304 262.124, 301.072 260.070, 297.809 260.032 C 296.329 260.014, 294.871 259.600, 294.568 259.110 C 294.266 258.621, 292.552 257.992, 290.759 257.712 C 288.967 257.432, 284.800 256.442, 281.500 255.511 C 278.200 254.580, 273.813 253.587, 271.750 253.304 C 269.688 253.021, 268 252.436, 268 252.004 C 268 251.572, 266.538 250.992, 264.750 250.715 C 262.962 250.438, 257 248.986, 251.500 247.488 C 246 245.990, 240.033 244.543, 238.241 244.272 C 236.448 244.001, 234.734 243.379, 234.432 242.890 C 234.129 242.400, 232.585 242, 231 242 C 229.415 242, 227.871 241.600, 227.568 241.110 C 227.266 240.621, 225.552 239.984, 223.759 239.694 C 217.690 238.712, 210.508 236.924, 208.764 235.960 C 207.809 235.432, 205.923 235, 204.573 235 C 203.223 235, 201.871 234.600, 201.568 234.110 C 201.266 233.621, 199.552 232.995, 197.759 232.719 C 192.737 231.945, 176.711 227.880, 174.764 226.886 C 173.809 226.399, 171.923 226, 170.573 226 C 169.223 226, 167.840 225.550, 167.500 225 C 167.160 224.450, 165.649 224, 164.141 224 C 162.633 224, 160.973 223.625, 160.450 223.167 C 159.928 222.709, 155.900 221.527, 151.500 220.539 C 147.100 219.552, 142.600 218.386, 141.500 217.947 C 140.400 217.509, 138.375 216.923, 137 216.645 C 135.625 216.367, 132.925 215.690, 131 215.141 C 129.075 214.593, 123.450 213.160, 118.500 211.958 C 113.550 210.756, 108.719 209.374, 107.764 208.886 C 106.809 208.399, 104.923 208, 103.573 208 C 102.223 208, 100.871 207.600, 100.568 207.110 C 100.266 206.621, 98.552 205.988, 96.759 205.704 C 94.967 205.419, 91.700 204.653, 89.500 204.001 C 87.300 203.350, 83.250 202.261, 80.500 201.581 C 77.750 200.901, 74.825 200.079, 74 199.754 C 73.175 199.428, 71.375 198.932, 70 198.651 C 68.625 198.369, 65.700 197.629, 63.500 197.006 C 54.518 194.460, 47.267 192.775, 43.250 192.301 L 39 191.799 39 194.840 M 1057 369.840 C 1057 370.963, 1057.450 372.160, 1058 372.500 C 1058.550 372.840, 1059 374.223, 1059 375.573 C 1059 376.923, 1059.399 378.809, 1059.886 379.764 C 1060.374 380.719, 1061.756 385.550, 1062.958 390.500 C 1064.160 395.450, 1065.598 401.075, 1066.154 403 C 1066.710 404.925, 1067.409 407.850, 1067.708 409.500 C 1068.007 411.150, 1068.603 412.950, 1069.032 413.500 C 1069.461 414.050, 1070.133 416.650, 1070.524 419.278 L 1071.235 424.056 1073.040 425.021 C 1075.056 426.101, 1085.750 428.932, 1090.759 429.713 C 1092.552 429.992, 1094.266 430.621, 1094.568 431.110 C 1094.871 431.600, 1096.351 432, 1097.859 432 C 1099.367 432, 1101.027 432.375, 1101.550 432.833 C 1102.072 433.291, 1106.100 434.466, 1110.500 435.445 C 1114.900 436.424, 1119.281 437.624, 1120.236 438.112 C 1121.191 438.601, 1123.077 439, 1124.427 439 C 1125.777 439, 1127.129 439.400, 1127.432 439.890 C 1127.734 440.379, 1129.448 441.006, 1131.241 441.284 C 1133.033 441.561, 1139 443.004, 1144.500 444.489 C 1150 445.974, 1155.625 447.406, 1157 447.670 C 1158.375 447.934, 1160.400 448.533, 1161.500 449 C 1162.600 449.467, 1164.625 450.077, 1166 450.356 C 1171.328 451.436, 1185.586 455.318, 1187.236 456.137 C 1188.191 456.612, 1190.077 457, 1191.427 457 C 1192.777 457, 1194.129 457.400, 1194.432 457.890 C 1194.734 458.379, 1196.448 459.001, 1198.241 459.272 C 1200.033 459.543, 1206 460.979, 1211.500 462.464 C 1217 463.949, 1222.625 465.386, 1224 465.658 C 1225.375 465.929, 1227.400 466.533, 1228.500 467 C 1229.600 467.467, 1231.625 468.082, 1233 468.367 C 1234.375 468.652, 1238.200 469.635, 1241.500 470.553 C 1244.800 471.471, 1249.188 472.444, 1251.250 472.716 C 1253.313 472.988, 1255 473.613, 1255 474.105 C 1255 474.597, 1256.323 475, 1257.941 475 C 1259.559 475, 1261.129 475.400, 1261.432 475.890 C 1261.734 476.379, 1263.448 477.001, 1265.241 477.273 C 1270.367 478.050, 1286.316 482.085, 1288.236 483.091 C 1289.191 483.591, 1291.077 484, 1292.427 484 C 1293.777 484, 1295.160 484.450, 1295.500 485 C 1295.840 485.550, 1297.223 486, 1298.573 486 C 1299.923 486, 1301.809 486.432, 1302.764 486.960 C 1304.290 487.803, 1308.353 488.852, 1317 490.635 C 1318.375 490.919, 1320.400 491.533, 1321.500 492 C 1323.587 492.886, 1327.302 493.775, 1332.652 494.669 L 1335.803 495.196 1336.300 493.348 C 1336.574 492.332, 1337.567 488.125, 1338.508 484 C 1339.449 479.875, 1340.619 475.719, 1341.109 474.764 C 1341.599 473.809, 1342 471.923, 1342 470.573 C 1342 469.223, 1342.398 467.872, 1342.885 467.571 C 1343.371 467.271, 1344.015 465.781, 1344.314 464.262 C 1345.326 459.129, 1347.750 449.511, 1348.455 447.827 L 1349.155 446.153 1346.851 444.920 C 1344.551 443.690, 1342.380 443.038, 1332 440.462 C 1328.975 439.712, 1324.925 438.651, 1323 438.105 C 1309.088 434.161, 1300.723 432.036, 1296.241 431.308 C 1294.448 431.017, 1292.734 430.379, 1292.432 429.890 C 1292.129 429.400, 1290.585 429, 1289 429 C 1287.415 429, 1285.871 428.600, 1285.568 428.110 C 1285.266 427.621, 1283.552 427.003, 1281.759 426.736 C 1276.765 425.992, 1261.717 422.041, 1259.764 420.960 C 1258.809 420.432, 1256.890 420, 1255.500 420 C 1254.110 420, 1252.191 419.605, 1251.236 419.123 C 1248.935 417.960, 1244.117 416.589, 1235 414.500 C 1230.875 413.555, 1226.719 412.381, 1225.764 411.891 C 1224.809 411.401, 1222.923 411, 1221.573 411 C 1220.223 411, 1218.871 410.600, 1218.568 410.110 C 1218.266 409.621, 1216.552 408.999, 1214.759 408.727 C 1209.633 407.950, 1193.684 403.915, 1191.764 402.909 C 1190.809 402.409, 1189.115 402, 1188 402 C 1186.885 402, 1185.191 401.605, 1184.236 401.123 C 1181.956 399.970, 1177.185 398.607, 1168 396.484 C 1163.875 395.531, 1159.600 394.390, 1158.500 393.950 C 1157.400 393.511, 1155.375 392.923, 1154 392.645 C 1152.625 392.367, 1149.925 391.694, 1148 391.150 C 1146.075 390.605, 1140.450 389.176, 1135.500 387.973 C 1130.550 386.770, 1125.600 385.435, 1124.500 385.007 C 1123.400 384.579, 1120.700 383.729, 1118.500 383.119 C 1101.989 378.542, 1095.844 377, 1094.113 377 C 1093.016 377, 1091.840 376.550, 1091.500 376 C 1091.160 375.450, 1089.585 375, 1088 375 C 1086.415 375, 1084.871 374.600, 1084.568 374.110 C 1084.266 373.621, 1082.552 372.992, 1080.759 372.712 C 1078.967 372.432, 1074.800 371.438, 1071.500 370.503 C 1068.200 369.568, 1063.588 368.577, 1061.250 368.301 L 1057 367.799 1057 369.840 M 1041.241 485.259 L 1021 505.518 1021 507.259 L 1021 509 1023.941 509 C 1025.559 509, 1027.160 509.450, 1027.500 510 C 1027.840 510.550, 1029.223 511, 1030.573 511 C 1031.923 511, 1033.809 511.399, 1034.764 511.886 C 1036.878 512.965, 1053.244 517.156, 1057.759 517.774 C 1059.552 518.020, 1061.266 518.621, 1061.568 519.110 C 1061.871 519.600, 1063.351 520, 1064.859 520 C 1066.367 520, 1068.027 520.375, 1068.550 520.833 C 1069.072 521.291, 1073.100 522.466, 1077.500 523.445 C 1081.900 524.424, 1086.281 525.624, 1087.236 526.112 C 1088.191 526.601, 1090.077 527, 1091.427 527 C 1092.777 527, 1094.160 527.450, 1094.500 528 C 1094.840 528.550, 1096.223 529, 1097.573 529 C 1098.923 529, 1100.809 529.409, 1101.764 529.909 C 1102.719 530.409, 1107.550 531.796, 1112.500 532.989 C 1117.450 534.183, 1122.963 535.574, 1124.750 536.080 C 1126.537 536.586, 1129.463 537.418, 1131.250 537.928 C 1133.037 538.439, 1138.550 539.840, 1143.500 541.042 C 1148.450 542.244, 1153.281 543.626, 1154.236 544.114 C 1155.191 544.601, 1157.077 545, 1158.427 545 C 1159.777 545, 1161.160 545.450, 1161.500 546 C 1161.840 546.550, 1163.415 547, 1165 547 C 1166.585 547, 1168.129 547.400, 1168.432 547.890 C 1168.734 548.379, 1170.448 549.017, 1172.241 549.308 C 1174.033 549.599, 1178.200 550.520, 1181.500 551.355 C 1187.047 552.757, 1189.344 553.385, 1198.250 555.928 C 1200.037 556.439, 1205.550 557.840, 1210.500 559.042 C 1215.450 560.244, 1220.281 561.626, 1221.236 562.114 C 1222.191 562.601, 1224.077 563, 1225.427 563 C 1226.777 563, 1228.129 563.400, 1228.432 563.890 C 1228.734 564.379, 1230.448 565.012, 1232.241 565.296 C 1234.033 565.581, 1237.300 566.335, 1239.500 566.971 C 1244.030 568.281, 1254.249 570.856, 1258 571.633 C 1259.375 571.918, 1261.400 572.515, 1262.500 572.961 C 1264.857 573.917, 1270.892 575.636, 1276.500 576.950 C 1278.700 577.465, 1282.300 578.393, 1284.500 579.013 C 1286.700 579.632, 1289.625 580.367, 1291 580.645 C 1292.375 580.923, 1294.400 581.533, 1295.500 582 C 1296.600 582.467, 1298.625 583.066, 1300 583.330 C 1301.375 583.594, 1307 585.015, 1312.500 586.488 C 1318 587.960, 1323.625 589.386, 1325 589.658 C 1326.375 589.929, 1328.400 590.504, 1329.500 590.937 C 1332.719 592.202, 1337.975 593.661, 1346 595.516 C 1350.125 596.469, 1354.439 597.680, 1355.588 598.207 C 1356.736 598.733, 1358.967 599.015, 1360.546 598.832 L 1363.417 598.500 1365.204 593.500 C 1366.188 590.750, 1366.994 587.289, 1366.996 585.809 C 1366.998 584.329, 1367.398 582.872, 1367.885 582.571 C 1368.371 582.271, 1368.994 580.781, 1369.270 579.262 C 1369.545 577.743, 1370.729 573.008, 1371.901 568.740 C 1373.074 564.472, 1374.309 558.334, 1374.647 555.099 L 1375.262 549.218 1369.381 547.612 C 1366.146 546.728, 1362.118 545.554, 1360.429 545.003 C 1358.740 544.451, 1356.404 544, 1355.238 544 C 1354.072 544, 1352.872 543.602, 1352.571 543.115 C 1352.271 542.629, 1350.781 541.985, 1349.262 541.686 C 1347.743 541.386, 1343.575 540.398, 1340 539.489 C 1336.425 538.581, 1332.033 537.599, 1330.241 537.308 C 1328.448 537.017, 1326.734 536.379, 1326.432 535.890 C 1326.129 535.400, 1324.585 535, 1323 535 C 1321.415 535, 1319.871 534.600, 1319.568 534.110 C 1319.266 533.621, 1317.552 532.999, 1315.759 532.727 C 1310.633 531.950, 1294.684 527.915, 1292.764 526.909 C 1291.809 526.409, 1289.923 526, 1288.573 526 C 1287.223 526, 1285.840 525.550, 1285.500 525 C 1285.160 524.450, 1283.777 524, 1282.427 524 C 1281.077 524, 1279.191 523.568, 1278.236 523.040 C 1276.710 522.197, 1272.647 521.148, 1264 519.365 C 1262.625 519.081, 1260.600 518.467, 1259.500 518 C 1258.400 517.533, 1256.375 516.923, 1255 516.645 C 1253.625 516.367, 1250.925 515.694, 1249 515.150 C 1247.075 514.605, 1241.450 513.183, 1236.500 511.989 C 1231.550 510.796, 1226.719 509.409, 1225.764 508.909 C 1224.809 508.409, 1222.923 508, 1221.573 508 C 1220.223 508, 1218.840 507.550, 1218.500 507 C 1218.160 506.450, 1216.777 506, 1215.427 506 C 1214.077 506, 1212.191 505.568, 1211.236 505.040 C 1209.710 504.197, 1205.647 503.148, 1197 501.365 C 1195.625 501.081, 1193.600 500.467, 1192.500 500 C 1191.400 499.533, 1189.375 498.937, 1188 498.677 C 1186.625 498.416, 1181.225 497.011, 1176 495.554 C 1170.775 494.098, 1164.802 492.641, 1162.726 492.318 C 1160.650 491.995, 1158.711 491.341, 1158.417 490.865 C 1158.123 490.389, 1156.649 490, 1155.141 490 C 1153.633 490, 1151.973 489.625, 1151.450 489.167 C 1150.928 488.709, 1146.900 487.534, 1142.500 486.555 C 1138.100 485.576, 1133.719 484.376, 1132.764 483.888 C 1131.809 483.399, 1129.923 483, 1128.573 483 C 1127.223 483, 1125.871 482.600, 1125.568 482.110 C 1125.266 481.621, 1123.552 480.994, 1121.759 480.716 C 1119.967 480.439, 1114 478.986, 1108.500 477.488 C 1103 475.990, 1097.033 474.543, 1095.241 474.272 C 1093.448 474.001, 1091.734 473.379, 1091.432 472.890 C 1091.129 472.400, 1089.649 472, 1088.141 472 C 1086.633 472, 1084.973 471.625, 1084.450 471.167 C 1083.928 470.709, 1079.900 469.534, 1075.500 468.555 C 1071.100 467.576, 1066.719 466.376, 1065.764 465.888 C 1064.809 465.399, 1063.454 465, 1062.754 465 C 1062.054 465, 1052.373 474.117, 1041.241 485.259" stroke="none" fill="#fbbb6c" fill-rule="evenodd"/><path d="M 458.303 126.572 L 337 248.144 337 251.513 C 337 253.366, 337.450 255.160, 338 255.500 C 338.550 255.840, 339 257.223, 339 258.573 C 339 259.923, 339.399 261.809, 339.886 262.764 C 340.880 264.711, 344.945 280.737, 345.719 285.759 C 345.995 287.552, 346.621 289.266, 347.110 289.568 C 347.600 289.871, 348 290.998, 348 292.073 C 348 294.503, 352.819 312.872, 354.076 315.236 C 354.584 316.191, 355 317.885, 355 319 C 355 320.115, 355.409 321.809, 355.909 322.764 C 356.915 324.684, 360.950 340.633, 361.727 345.759 C 361.999 347.552, 362.621 349.266, 363.110 349.568 C 363.600 349.871, 364 351.223, 364 352.573 C 364 353.923, 364.409 355.809, 364.909 356.764 C 365.729 358.329, 369.459 372.730, 370.668 379 C 370.934 380.375, 371.515 382.400, 371.961 383.500 C 372.407 384.600, 373.242 387.300, 373.816 389.500 C 376.307 399.041, 378.132 405.711, 379.033 408.571 C 379.565 410.260, 380 412.596, 380 413.762 C 380 414.928, 380.400 416.129, 380.890 416.432 C 381.379 416.734, 382.006 418.448, 382.284 420.241 C 382.561 422.033, 384.014 428, 385.512 433.500 C 387.010 439, 388.457 444.967, 388.728 446.759 C 388.999 448.552, 389.621 450.266, 390.110 450.568 C 390.600 450.871, 391 452.223, 391 453.573 C 391 454.923, 391.394 456.809, 391.875 457.764 C 392.356 458.719, 393.521 462.875, 394.463 467 C 396.239 474.779, 397.713 480.064, 399.063 483.500 C 399.496 484.600, 400.082 486.625, 400.367 488 C 400.652 489.375, 401.622 493.425, 402.524 497 C 403.425 500.575, 404.401 504.967, 404.692 506.759 C 404.983 508.552, 405.621 510.266, 406.110 510.568 C 406.600 510.871, 407 512.415, 407 514 C 407 515.585, 407.450 517.160, 408 517.500 C 408.550 517.840, 409 519.223, 409 520.573 C 409 521.923, 409.399 523.809, 409.886 524.764 C 410.688 526.334, 414.444 540.797, 415.660 547 C 415.930 548.375, 416.515 550.400, 416.961 551.500 C 418.541 555.397, 421.781 567.956, 422.703 573.759 C 422.988 575.552, 423.621 577.266, 424.110 577.568 C 424.600 577.871, 425 579.216, 425 580.559 L 425 583 426.320 583 C 427.732 583, 431.151 579.454, 432.913 576.163 C 433.503 575.059, 434.555 573.558, 435.250 572.828 C 437.759 570.189, 453 548.915, 453 548.052 C 453 547.565, 453.392 547.017, 453.870 546.833 C 454.349 546.650, 456.711 543.743, 459.120 540.373 C 461.529 537.003, 466.143 530.556, 469.373 526.046 L 475.246 517.846 474.123 516.723 C 473.505 516.105, 473 514.367, 473 512.859 C 473 511.351, 472.600 509.871, 472.110 509.568 C 471.621 509.266, 470.999 507.552, 470.727 505.759 C 469.950 500.633, 465.915 484.684, 464.909 482.764 C 464.409 481.809, 464 479.923, 464 478.573 C 464 477.223, 463.550 475.840, 463 475.500 C 462.450 475.160, 462 473.777, 462 472.427 C 462 471.077, 461.601 469.191, 461.112 468.236 C 460.624 467.281, 459.424 462.900, 458.445 458.500 C 457.466 454.100, 456.291 450.072, 455.833 449.550 C 455.375 449.027, 455 447.367, 455 445.859 C 455 444.351, 454.600 442.871, 454.110 442.568 C 453.621 442.266, 453.020 440.552, 452.774 438.759 C 452.156 434.244, 447.965 417.878, 446.886 415.764 C 446.399 414.809, 446 413.115, 446 412 C 446 410.885, 445.591 409.191, 445.091 408.236 C 444.591 407.281, 443.204 402.450, 442.011 397.500 C 440.817 392.550, 439.384 386.925, 438.827 385 C 438.270 383.075, 437.582 380.038, 437.298 378.250 C 437.014 376.462, 436.428 375, 435.996 375 C 435.564 375, 434.979 373.312, 434.696 371.250 C 434.413 369.188, 433.434 364.575, 432.520 361 C 431.606 357.425, 430.614 353.257, 430.314 351.738 C 430.015 350.219, 429.371 348.729, 428.885 348.429 C 428.398 348.128, 428 346.777, 428 345.427 C 428 344.077, 427.591 342.191, 427.091 341.236 C 426.085 339.316, 422.050 323.367, 421.273 318.241 C 421.001 316.448, 420.379 314.734, 419.890 314.432 C 419.400 314.129, 419 312.585, 419 311 C 419 309.415, 418.600 307.871, 418.110 307.568 C 417.621 307.266, 416.983 305.552, 416.692 303.759 C 415.936 299.107, 413.700 290.355, 409.918 277.250 C 409.322 275.188, 408.589 272.212, 408.288 270.637 L 407.740 267.775 499.354 176.137 L 590.968 84.500 590.444 79 C 590.156 75.975, 589.671 71.925, 589.366 70 C 588.460 64.274, 586.939 50.032, 586.376 42 C 586.086 37.875, 585.434 34.072, 584.925 33.550 C 584.416 33.027, 584 30.126, 584 27.102 C 584 19.354, 581.794 5, 580.603 5 C 580.055 5, 525.020 59.707, 458.303 126.572 M 945.995 105.724 C 942.728 109.606, 937 118.062, 937 119.002 C 937 119.551, 936.663 120.003, 936.250 120.007 C 935.837 120.011, 934.375 121.666, 933 123.685 C 931.625 125.704, 930.023 127.838, 929.440 128.428 C 928.856 129.018, 925.715 133.325, 922.460 138 C 919.204 142.675, 915.744 147.372, 914.770 148.439 C 913.797 149.505, 913 150.673, 913 151.036 C 913 151.398, 912.212 152.625, 911.250 153.763 C 907.592 158.087, 906.418 159.652, 903.670 163.862 L 900.840 168.199 901.830 170.850 C 902.375 172.307, 903.585 176.875, 904.519 181 C 905.454 185.125, 906.619 189.281, 907.109 190.236 C 907.599 191.191, 908 193.077, 908 194.427 C 908 195.777, 908.450 197.160, 909 197.500 C 909.550 197.840, 910 199.223, 910 200.573 C 910 201.923, 910.399 203.809, 910.886 204.764 C 911.374 205.719, 912.756 210.550, 913.958 215.500 C 915.160 220.450, 916.536 225.850, 917.015 227.500 C 920.294 238.782, 922.967 249.295, 923.692 253.759 C 923.983 255.552, 924.621 257.266, 925.110 257.568 C 925.600 257.871, 926 259.415, 926 261 C 926 262.585, 926.389 264.123, 926.865 264.417 C 927.341 264.711, 927.995 266.650, 928.318 268.726 C 928.641 270.802, 930.098 276.775, 931.554 282 C 933.011 287.225, 934.416 292.625, 934.677 294 C 934.937 295.375, 935.533 297.400, 936 298.500 C 936.467 299.600, 937.082 301.625, 937.367 303 C 937.652 304.375, 938.617 308.425, 939.513 312 C 940.408 315.575, 941.386 319.743, 941.686 321.262 C 941.985 322.781, 942.629 324.271, 943.115 324.571 C 943.602 324.872, 944 326.223, 944 327.573 C 944 328.923, 944.409 330.809, 944.909 331.764 C 945.915 333.684, 949.950 349.633, 950.727 354.759 C 950.999 356.552, 951.621 358.266, 952.110 358.568 C 952.600 358.871, 953 360.223, 953 361.573 C 953 362.923, 953.401 364.809, 953.891 365.764 C 954.381 366.719, 955.555 370.875, 956.500 375 C 958.589 384.117, 959.960 388.935, 961.123 391.236 C 961.605 392.191, 962 394.254, 962 395.820 C 962 397.386, 962.337 399.004, 962.750 399.416 C 964.087 400.754, 967.784 417.459, 967.047 418.830 C 966.653 419.562, 925.560 461.002, 875.730 510.918 L 785.130 601.675 785.614 609.588 C 785.880 613.939, 786.507 619.075, 787.008 621 C 787.509 622.925, 788.143 627.875, 788.418 632 C 788.692 636.125, 789.640 645.800, 790.524 653.500 C 791.408 661.200, 792.378 670.538, 792.679 674.250 L 793.226 681 794.863 680.998 L 796.500 680.996 917.852 559.418 L 1039.203 437.839 1038.554 434.670 C 1038.197 432.926, 1037.652 430.033, 1037.342 428.241 C 1037.032 426.448, 1036.379 424.734, 1035.890 424.432 C 1035.400 424.129, 1035 422.585, 1035 421 C 1035 419.415, 1034.611 417.877, 1034.135 417.583 C 1033.659 417.289, 1033.005 415.350, 1032.682 413.274 C 1032.359 411.198, 1030.902 405.225, 1029.446 400 C 1027.989 394.775, 1026.584 389.375, 1026.323 388 C 1026.063 386.625, 1025.467 384.600, 1025 383.500 C 1024.533 382.400, 1023.918 380.375, 1023.633 379 C 1023.348 377.625, 1022.383 373.575, 1021.487 370 C 1020.592 366.425, 1019.614 362.257, 1019.314 360.738 C 1019.015 359.219, 1018.371 357.729, 1017.885 357.429 C 1017.398 357.128, 1017 355.777, 1017 354.427 C 1017 353.077, 1016.591 351.191, 1016.091 350.236 C 1015.085 348.316, 1011.050 332.367, 1010.273 327.241 C 1010.001 325.448, 1009.379 323.734, 1008.890 323.432 C 1008.400 323.129, 1008 321.585, 1008 320 C 1008 318.415, 1007.600 316.871, 1007.110 316.568 C 1006.621 316.266, 1005.983 314.552, 1005.692 312.759 C 1005.144 309.385, 1002.969 300.466, 1000.994 293.500 C 1000.371 291.300, 999.633 288.375, 999.355 287 C 999.077 285.625, 998.459 283.600, 997.982 282.500 C 997.109 280.485, 993.202 265.645, 992.323 261 C 992.062 259.625, 991.467 257.600, 991 256.500 C 990.533 255.400, 989.934 253.375, 989.670 252 C 989.406 250.625, 987.974 245, 986.489 239.500 C 985.004 234, 983.561 228.033, 983.284 226.241 C 983.006 224.448, 982.379 222.734, 981.890 222.432 C 981.400 222.129, 981 220.777, 981 219.427 C 981 218.077, 980.601 216.191, 980.112 215.236 C 979.624 214.281, 978.424 209.900, 977.445 205.500 C 976.466 201.100, 975.291 197.072, 974.833 196.550 C 974.375 196.027, 974 194.367, 974 192.859 C 974 191.351, 973.600 189.871, 973.110 189.568 C 972.621 189.266, 971.999 187.552, 971.728 185.759 C 971.457 183.967, 970.010 178, 968.512 172.500 C 967.014 167, 965.561 161.033, 965.284 159.241 C 965.006 157.448, 964.379 155.734, 963.890 155.432 C 963.400 155.129, 963 153.777, 963 152.427 C 963 151.077, 962.601 149.191, 962.112 148.236 C 961.624 147.281, 960.424 142.900, 959.445 138.500 C 958.466 134.100, 957.291 130.072, 956.833 129.550 C 956.375 129.027, 956 127.367, 956 125.859 C 956 124.351, 955.550 122.840, 955 122.500 C 954.450 122.160, 954 120.409, 954 118.608 C 954 116.807, 953.663 114.999, 953.250 114.590 C 952.837 114.181, 952.048 111.749, 951.496 109.186 L 950.491 104.526 948.990 104.237 C 948.165 104.078, 946.817 104.747, 945.995 105.724" stroke="none" fill="#4cd3c3" fill-rule="evenodd"/></svg>