<svg xmlns="http://www.w3.org/2000/svg" width="1080" height="1080" viewBox="0 0 1080 1080" version="1.1"><path d="M 630.907 277.778 C 617.380 296.325, 558.488 376.898, 500.035 456.828 C 441.582 536.759, 394.149 602.509, 394.628 602.940 C 397.703 605.704, 422.664 623.315, 423.624 623.398 C 424.635 623.486, 686.016 267.378, 685.952 266 C 685.928 265.474, 656.498 243.980, 655.866 244.028 C 655.665 244.043, 644.433 259.230, 630.907 277.778 M 216.692 736.972 C 209.473 739.793, 205.462 743.358, 202.328 749.742 C 200.022 754.436, 199.507 756.793, 199.537 762.500 C 199.628 779.463, 210.541 790, 228.018 790 C 240.270 790, 251.185 782.284, 254.156 771.522 C 258.190 756.912, 251.257 741.859, 238.253 736.994 C 231.574 734.494, 223.055 734.486, 216.692 736.972 M 269.721 735.642 C 269.405 736.154, 269.407 748.595, 269.728 763.287 L 270.310 790 276.155 790 L 282 790 282 779.937 L 282 769.873 285.202 770.187 C 288.075 770.468, 288.924 771.403, 293.474 779.300 C 296.262 784.140, 299.209 788.521, 300.022 789.035 C 300.835 789.549, 304.277 789.976, 307.671 789.985 L 313.842 790 307.924 780.250 C 304.669 774.888, 301.093 769.744, 299.979 768.821 C 297.972 767.157, 297.982 767.124, 301.045 765.321 C 306.942 761.849, 310.212 753.203, 308.076 746.730 C 306.694 742.543, 302.639 738.660, 298 737.081 C 293.525 735.558, 270.498 734.386, 269.721 735.642 M 325 762.352 L 325 790 337.318 790 C 352.431 790, 358.517 788.453, 362.857 783.511 C 368.504 777.078, 367.826 767.517, 361.482 764.117 C 357.423 761.942, 357.322 761.091, 360.867 758.935 C 364.476 756.740, 366.166 751.670, 365.005 746.521 C 363.160 738.342, 357.729 735.999, 338.882 735.253 L 325 734.703 325 762.352 M 381.710 735.623 C 381.320 736.014, 381 748.408, 381 763.167 L 381 790 387.516 790 L 394.032 790 393.766 762.750 L 393.500 735.500 387.960 735.206 C 384.913 735.045, 382.101 735.232, 381.710 735.623 M 406.949 735.230 C 406.922 735.379, 406.791 737.638, 406.659 740.250 L 406.420 745 414.210 745 L 422 745 422 767.500 L 422 790 428 790 L 434 790 434 767.500 L 434 745 442.055 745 L 450.110 745 449.805 740.250 L 449.500 735.500 428.250 735.230 C 416.563 735.082, 406.977 735.082, 406.949 735.230 M 220.015 746.752 C 212.745 750.399, 209.492 763.502, 213.752 771.980 C 217.575 779.591, 228.358 782.518, 235.818 777.970 C 245.764 771.906, 244.962 751.531, 234.583 746.606 C 230.166 744.511, 224.367 744.568, 220.015 746.752 M 282 753 L 282 761 286.750 760.968 C 291.807 760.934, 293.965 759.830, 295.837 756.316 C 297.636 752.937, 297.228 750.137, 294.545 747.455 C 292.588 745.497, 291.069 745, 287.045 745 L 282 745 282 753 M 337.204 751.750 L 337.500 758.500 343.451 758.223 C 350.506 757.895, 353 756.117, 353 751.416 C 353 746.409, 350.889 745, 343.383 745 L 336.909 745 337.204 751.750 M 337.204 773.750 L 337.500 780.500 341.184 780.806 C 347.108 781.299, 352.937 779.295, 354.044 776.385 C 355.442 772.706, 355.234 771.234, 353 769 C 351.378 767.378, 349.667 767, 343.954 767 L 336.909 767 337.204 773.750" stroke="none" fill="#fefeff" fill-rule="evenodd"/><path d="M 160.882 305.227 C 158.924 312.527, 157.443 318.655, 157.590 318.845 C 157.736 319.034, 196.926 329.675, 244.678 342.490 L 331.500 365.790 342.735 354.676 C 350.052 347.438, 353.539 343.328, 352.735 342.889 C 352.056 342.518, 309.875 331.078, 259 317.466 C 208.125 303.855, 166.037 292.546, 165.470 292.336 C 164.896 292.124, 162.867 297.824, 160.882 305.227 M 178.947 354.292 C 178.337 356.606, 176.728 362.491, 175.371 367.368 C 174.014 372.246, 173.167 376.500, 173.489 376.822 C 174.202 377.536, 332.252 420.001, 333.102 419.708 C 333.541 419.556, 326.361 390.448, 325.610 389.337 C 325.550 389.247, 293.325 380.568, 254 370.050 C 214.675 359.532, 181.950 350.737, 181.277 350.505 C 180.536 350.249, 179.619 351.739, 178.947 354.292 M 746.316 449.380 C 746.655 450.266, 748.571 457.180, 750.572 464.745 C 752.573 472.310, 754.343 478.643, 754.505 478.817 C 755.048 479.400, 899.438 517.895, 899.784 517.550 C 900.503 516.830, 907.119 491.785, 906.700 491.367 C 906.457 491.124, 902.263 489.853, 897.379 488.542 C 892.496 487.232, 857.225 477.786, 819 467.551 C 780.775 457.317, 748.644 448.679, 747.599 448.356 C 746.147 447.908, 745.844 448.150, 746.316 449.380 M 736.542 513.958 C 729.036 521.487, 726.069 525.084, 727.059 525.451 C 730.018 526.550, 915.324 576.008, 915.551 575.759 C 916.088 575.170, 922.772 549, 922.385 549 C 922.154 549, 883.358 538.650, 836.173 526 C 788.988 513.350, 749.725 503, 748.924 503 C 748.122 503, 742.550 507.931, 736.542 513.958 M 269.420 770.500 C 269.419 781.500, 269.565 786.136, 269.745 780.803 C 269.924 775.470, 269.925 766.470, 269.746 760.803 C 269.568 755.136, 269.421 759.500, 269.420 770.500" stroke="none" fill="#feb86d" fill-rule="evenodd"/><path d="M 412.181 314.319 L 344.914 381.592 369.640 473.796 C 383.240 524.508, 394.638 566, 394.970 566 C 396.347 566, 420.472 531.653, 420.156 530.143 C 419.708 528.003, 387.451 407.496, 385.052 399 L 383.217 392.500 434.249 341.355 L 485.282 290.211 483.020 269.355 C 481.776 257.885, 480.463 248.173, 480.103 247.774 C 479.742 247.374, 449.177 277.320, 412.181 314.319 M 672.500 318.483 C 665.900 327.526, 660.367 335.757, 660.205 336.774 C 659.969 338.255, 680.298 415.713, 693.989 465.500 L 696.739 475.500 645.696 526.677 L 594.653 577.855 597.038 599.427 C 598.350 611.292, 599.667 621, 599.965 621 C 600.262 621, 630.770 590.733, 667.760 553.740 L 735.014 486.481 722.019 437.990 C 714.872 411.321, 703.771 369.813, 697.351 345.750 C 690.932 321.688, 685.414 302.009, 685.089 302.021 C 684.765 302.032, 679.100 309.440, 672.500 318.483 M 462 762.481 L 462 790.179 477.250 789.826 C 489.343 789.546, 493.162 789.114, 495.698 787.738 C 506.038 782.127, 507.586 768.323, 498.429 763.392 L 495.096 761.597 497.995 759.548 C 505.834 754.009, 504.388 741.846, 495.368 737.458 C 492.266 735.949, 488.578 735.498, 476.750 735.179 L 462 734.782 462 762.481 M 518.496 736.151 C 518.204 736.911, 518.086 749.225, 518.233 763.516 L 518.500 789.500 524.750 789.798 L 531 790.095 531 779.984 L 531 769.873 534.192 770.187 C 536.927 770.455, 537.875 771.360, 540.806 776.500 C 548.884 790.663, 548.138 790, 556.014 790 C 559.856 790, 563 789.802, 563 789.560 C 563 788.535, 550.726 769.401, 549.412 768.379 C 548.215 767.448, 548.565 766.806, 551.487 764.578 C 556.100 761.060, 558.001 757.181, 557.996 751.300 C 557.991 745.107, 555.319 740.726, 549.789 737.847 C 546.150 735.953, 543.494 735.550, 532.263 735.192 C 521.632 734.852, 518.921 735.041, 518.496 736.151 M 588.077 737.250 C 576.245 767.730, 568 789.212, 568 789.559 C 568 789.802, 570.645 790, 573.878 790 C 580.451 790, 580.915 789.650, 583.495 782.750 L 585.272 778 595.558 778 L 605.845 778 607.034 781.750 C 609.390 789.182, 610.391 790, 617.130 790 C 621.593 790, 623.083 789.667, 622.723 788.750 C 622.453 788.063, 618.400 777.600, 613.717 765.500 C 609.035 753.400, 604.434 741.587, 603.493 739.250 L 601.783 735 595.367 735 C 589.638 735, 588.857 735.241, 588.077 737.250 M 646.634 736.031 C 639.438 738.186, 632.511 745.406, 629.987 753.381 C 628.209 758.998, 629.163 771.527, 631.747 776.500 C 634.444 781.691, 639.482 786.468, 644.500 788.591 C 653.294 792.311, 668.130 789.934, 673.559 783.935 C 675.337 781.970, 675.304 781.843, 672.227 778.765 L 669.071 775.610 664.676 777.805 C 652.648 783.812, 642.005 776.730, 642.002 762.718 C 641.998 748.823, 650.731 742.033, 662.390 746.866 C 665.222 748.040, 668.008 749, 668.581 749 C 670.258 749, 674.214 743.001, 673.597 741.393 C 673.287 740.585, 670.663 738.820, 667.767 737.472 C 662.211 734.885, 652.637 734.232, 646.634 736.031 M 687 762.500 L 687 790 693.500 790 L 700 790 700 778.500 L 700 767 703.017 767 C 705.746 767, 706.708 768.024, 713.117 777.750 C 717.013 783.663, 720.718 788.831, 721.350 789.235 C 721.983 789.639, 725.533 789.976, 729.240 789.985 L 735.981 790 728.122 777.878 C 723.800 771.211, 719.094 764.517, 717.665 763.003 L 715.066 760.250 717.107 758.403 C 719.301 756.418, 734 736.566, 734 735.588 C 734 734.815, 724.145 734.854, 721.215 735.640 C 719.765 736.028, 716.345 740.048, 711.868 746.626 C 706.199 754.954, 704.332 757, 702.403 757 C 700.011 757, 700 756.948, 700 746 L 700 735 693.500 735 L 687 735 687 762.500 M 746 762.500 L 746 790 763.500 790 L 781 790 781 785 L 781 780 770 780 L 759 780 759 773.500 L 759 767 767.500 767 L 776 767 776 762.500 L 776 758 767.500 758 L 759 758 759 751.500 L 759 745 770 745 L 781 745 781 740 L 781 735 763.500 735 L 746 735 746 762.500 M 791 739.980 L 791 745 798.500 745 L 806 745 806 767.500 L 806 790 812.481 790 L 818.962 790 819.231 767.750 L 819.500 745.500 827.303 745.207 L 835.106 744.914 834.803 740.207 L 834.500 735.500 812.750 735.230 L 791 734.961 791 739.980 M 854.502 736.575 C 848.047 739.941, 845 744.530, 845 750.885 C 845 759.281, 848.781 763.663, 858.886 766.978 C 866.478 769.468, 869 771.365, 869 774.584 C 869 780.032, 861.384 781.767, 854 778 C 848.633 775.262, 847.501 775.454, 844.983 779.528 C 842.320 783.837, 842.968 784.880, 850.263 788.018 C 861.896 793.022, 874.231 790, 878.750 781.038 C 884.133 770.364, 879.945 761.423, 867.693 757.431 C 860.068 754.946, 857 752.916, 857 750.356 C 857 745.226, 863.577 743.400, 870.375 746.642 C 874.607 748.660, 876.406 748.050, 878.572 743.861 C 880.195 740.723, 880.178 740.562, 878.044 738.835 C 873.235 734.940, 860.062 733.676, 854.502 736.575 M 324.439 763 C 324.439 778.125, 324.578 784.313, 324.748 776.750 C 324.917 769.188, 324.917 756.813, 324.748 749.250 C 324.578 741.688, 324.439 747.875, 324.439 763 M 337.328 751.500 C 337.333 755.350, 337.513 756.802, 337.730 754.728 C 337.946 752.653, 337.943 749.503, 337.722 747.728 C 337.501 745.952, 337.324 747.650, 337.328 751.500 M 413.731 745.718 L 420.962 746.087 421.260 767.793 L 421.557 789.500 421.529 767.500 L 421.500 745.500 414 745.424 L 406.500 745.349 413.731 745.718 M 434.448 746.275 C 434.179 746.976, 434.090 757.213, 434.250 769.025 L 434.542 790.500 434.771 768.294 L 435 746.088 442.250 745.743 L 449.500 745.397 442.219 745.199 C 437.089 745.059, 434.793 745.377, 434.448 746.275 M 475 751.500 L 475 758 480.929 758 C 488.730 758, 490.671 756.190, 490.043 749.500 C 489.743 746.314, 487.047 745, 480.809 745 L 475 745 475 751.500 M 531 753 L 531 761 534.351 761 C 544.307 761, 549.476 753.385, 543.545 747.455 C 541.588 745.497, 540.069 745, 536.045 745 L 531 745 531 753 M 591.681 758.442 L 588.145 769 595.506 769 L 602.868 769 599.449 758.848 C 597.569 753.265, 595.847 748.514, 595.623 748.290 C 595.399 748.066, 593.625 752.634, 591.681 758.442 M 337.328 773.500 C 337.333 777.350, 337.513 778.802, 337.730 776.728 C 337.946 774.653, 337.943 771.503, 337.722 769.728 C 337.501 767.952, 337.324 769.650, 337.328 773.500 M 475 773.500 L 475 780 481.500 780 C 488.995 780, 492 778.013, 492 773.057 C 492 768.768, 488.870 767, 481.277 767 L 475 767 475 773.500" stroke="none" fill="#4fd0c4" fill-rule="evenodd"/></svg>